<svg width="86" height="34" viewBox="0 0 86 34" fill="none" xmlns="http://www.w3.org/2000/svg">
<g clip-path="url(#clip0_3:113)">
<path d="M0 26.2725L5.32857 23.6649C6.94537 26.8881 9.43503 28.3892 12.7112 28.3892C16.118 28.3892 17.5162 26.6676 17.5162 24.6365C17.5162 17.9691 1.35443 21.6786 1.35443 9.40373C1.35499 3.66535 5.94244 0 12.2739 0C17.2073 0 21.4029 2.07529 23.7619 6.49117L19.0018 9.80166C17.7343 6.88854 14.8079 5.56378 12.2302 5.56378C9.25899 5.56378 7.77563 7.10962 7.77563 9.0517C7.77563 16.1171 23.9374 12.4075 23.9374 24.1978C23.9374 29.0983 20.1813 34 12.4926 34C8.29699 34 2.7083 32.368 0 26.2725Z" fill="#FE460D"/>
<path d="M31.2735 33.9977C29.6103 34.0741 27.9793 33.5168 26.7028 32.436C26.1296 31.8829 25.6796 31.2125 25.3829 30.4696C25.0862 29.7267 24.9497 28.9284 24.9823 28.1278C24.9823 23.386 28.0825 22.6474 32.7748 21.5267C34.8997 21.0588 36.9944 20.4606 39.0474 19.7354V18.8109C39.0474 16.3966 37.9262 15.3666 35.2914 15.3666C33.6594 15.3666 32.6565 15.6767 31.9451 16.4045C31.246 17.1171 30.8356 18.2423 30.4006 19.8267L25.201 17.8835C25.427 16.7793 25.8817 15.7361 26.5352 14.8224C27.1644 13.9624 27.9564 13.2375 28.8651 12.6898C30.8916 11.5425 33.1878 10.9722 35.5094 11.0397C38.8854 11.0397 41.1357 11.5431 42.591 12.6235C44.0464 13.704 44.7258 15.3762 44.7258 17.8835V28.7009H48.4382V33.559H38.4369L39.0485 30.0705V29.0547L36.3391 32.4105C34.8438 33.4363 33.0804 33.9888 31.2735 33.9977ZM39.048 21.4598C35.7628 22.4751 33.882 23.2556 32.758 24.0714C32.2506 24.3894 31.837 24.8394 31.5603 25.3742C31.2836 25.9091 31.154 26.5092 31.1849 27.112C31.17 27.4768 31.2287 27.8408 31.3574 28.1818C31.486 28.5229 31.682 28.834 31.9333 29.0961C32.5044 29.6172 33.256 29.889 34.0244 29.8522C35.6131 29.8522 38.2222 28.4685 39.0485 25.3922L39.048 21.4598Z" fill="#FE460D"/>
<path d="M71.1512 33.5584H65.4728V11.4807H71.1512V33.5573V33.5584ZM56.7374 33.5584H51.0596V16.3388H47.3456V11.4807H51.0596V3.93008C51.0596 1.35821 52.7975 0.441589 54.4233 0.441589H61.3243V5.29962H58.135C57.9449 5.27058 57.7507 5.28707 57.568 5.34777C57.3854 5.40847 57.2194 5.51168 57.0833 5.64911C56.9473 5.78653 56.8451 5.95432 56.785 6.13897C56.7248 6.32363 56.7083 6.51999 56.7369 6.71225V11.4802H60.8854V16.3382H56.7369V33.5573L56.7374 33.5584ZM71.1512 6.18223H65.4728V0.441589H71.1512V6.18167V6.18223Z" fill="#FE460D"/>
<path d="M73.3331 33.5584V11.4807H79.012V18.8539L80.7157 12.717C81.8952 11.3481 82.943 10.7738 86.0028 11.1718V16.8228C81.7198 16.4697 79.012 17.9277 79.012 23.4467V33.5584H73.3331Z" fill="#FE460D"/>
</g>
<defs>
<clipPath id="clip0_3:113">
<rect width="86" height="34" fill="white"/>
</clipPath>
</defs>
</svg>
